<?xml version="1.0" encoding="UTF-8" standalone="no"?>
<!-- Created with Inkscape (http://www.inkscape.org/) -->

<svg
   version="1.1"
   id="svg1"
   width="121.48056"
   height="48.573608"
   viewBox="0 0 121.48056 48.573608"
   xmlns="http://www.w3.org/2000/svg"
   xmlns:svg="http://www.w3.org/2000/svg">
  <defs
     id="defs1">
    <clipPath
       clipPathUnits="userSpaceOnUse"
       id="clipPath203">
      <path
         d="M 0,595.276 H 420.945 V 0 H 0 Z"
         transform="translate(-400.12051,-49.012301)"
         id="path203" />
    </clipPath>
    <clipPath
       clipPathUnits="userSpaceOnUse"
       id="clipPath205">
      <path
         d="M 0,595.276 H 420.945 V 0 H 0 Z"
         transform="translate(-375.36861,-57.179801)"
         id="path205" />
    </clipPath>
    <clipPath
       clipPathUnits="userSpaceOnUse"
       id="clipPath207">
      <path
         d="M 0,595.276 H 420.945 V 0 H 0 Z"
         transform="translate(-372.71991,-37.925598)"
         id="path207" />
    </clipPath>
    <clipPath
       clipPathUnits="userSpaceOnUse"
       id="clipPath209">
      <path
         d="M 0,595.276 H 420.945 V 0 H 0 Z"
         transform="translate(-367.81231,-32.762598)"
         id="path209" />
    </clipPath>
    <clipPath
       clipPathUnits="userSpaceOnUse"
       id="clipPath211">
      <path
         d="M 0,595.276 H 420.945 V 0 H 0 Z"
         transform="translate(-321.88441,-31.456998)"
         id="path211" />
    </clipPath>
    <clipPath
       clipPathUnits="userSpaceOnUse"
       id="clipPath213">
      <path
         d="M 0,595.276 H 420.945 V 0 H 0 Z"
         transform="translate(-331.42741,-37.645398)"
         id="path213" />
    </clipPath>
    <clipPath
       clipPathUnits="userSpaceOnUse"
       id="clipPath215">
      <path
         d="M 0,595.276 H 420.945 V 0 H 0 Z"
         transform="translate(-329.81131,-37.645398)"
         id="path215" />
    </clipPath>
    <clipPath
       clipPathUnits="userSpaceOnUse"
       id="clipPath217">
      <path
         d="M 0,595.276 H 420.945 V 0 H 0 Z"
         transform="translate(-337.16531,-33.083298)"
         id="path217" />
    </clipPath>
    <clipPath
       clipPathUnits="userSpaceOnUse"
       id="clipPath219">
      <path
         d="M 0,595.276 H 420.945 V 0 H 0 Z"
         id="path219" />
    </clipPath>
    <clipPath
       clipPathUnits="userSpaceOnUse"
       id="clipPath221">
      <path
         d="M 0,595.276 H 420.945 V 0 H 0 Z"
         transform="translate(-310.88231,-37.584101)"
         id="path221" />
    </clipPath>
    <clipPath
       clipPathUnits="userSpaceOnUse"
       id="clipPath223">
      <path
         d="M 0,595.276 H 420.945 V 0 H 0 Z"
         transform="translate(-312.49851,-37.584101)"
         id="path223" />
    </clipPath>
    <clipPath
       clipPathUnits="userSpaceOnUse"
       id="clipPath225">
      <path
         d="M 0,595.276 H 420.945 V 0 H 0 Z"
         transform="translate(-319.51481,-30.689801)"
         id="path225" />
    </clipPath>
    <clipPath
       clipPathUnits="userSpaceOnUse"
       id="clipPath227">
      <path
         d="M 0,595.276 H 420.945 V 0 H 0 Z"
         transform="translate(-311.72111,-32.919701)"
         id="path227" />
    </clipPath>
    <clipPath
       clipPathUnits="userSpaceOnUse"
       id="clipPath229">
      <path
         d="M 0,595.276 H 420.945 V 0 H 0 Z"
         transform="translate(-317.89861,-30.689801)"
         id="path229" />
    </clipPath>
    <clipPath
       clipPathUnits="userSpaceOnUse"
       id="clipPath232">
      <path
         d="M 0,595.276 H 420.945 V 0 H 0 Z"
         transform="translate(-364.46351,-58.023604)"
         id="path232" />
    </clipPath>
    <clipPath
       clipPathUnits="userSpaceOnUse"
       id="clipPath234">
      <path
         d="M 0,595.276 H 420.945 V 0 H 0 Z"
         transform="translate(-350.43241,-54.093499)"
         id="path234" />
    </clipPath>
  </defs>
  <g
     id="layer-MC0"
     transform="translate(-412.01346,-716.33655)">
    <path
       id="path202"
       d="M 0,0 V -4.238 L -14.498,3.929 V 8.168 Z M -2.668,6.84 H -5.223 V 3.955 L -2.668,2.516 Z M -24.822,3.929 -10.325,-4.238 V 0 l -14.497,8.168 z"
       style="fill:black;fill-opacity:1;fill-rule:nonzero;stroke:none"
       transform="matrix(1.3333333,0,0,-1.3333333,533.494,728.3516)"
       clip-path="url(#clipPath203)" />
    <path
       id="path204"
       d="m 0,0 v -4.238 l -14.498,-8.168 v 4.238 z"
       style="fill:black;fill-opacity:1;fill-rule:nonzero;stroke:none"
       transform="matrix(1.3333333,0,0,-1.3333333,500.49147,717.4616)"
       clip-path="url(#clipPath205)" />
    <path
       id="path206"
       d="m 0,0 c 0.223,0 0.407,0.077 0.553,0.23 0.146,0.154 0.219,0.346 0.219,0.577 0,0.23 -0.073,0.42 -0.219,0.57 C 0.407,1.527 0.223,1.602 0,1.602 c -0.223,0 -0.407,-0.075 -0.553,-0.225 -0.146,-0.15 -0.219,-0.34 -0.219,-0.57 0,-0.231 0.073,-0.423 0.219,-0.577 C -0.407,0.077 -0.223,0 0,0"
       style="fill:black;fill-opacity:1;fill-rule:nonzero;stroke:none"
       transform="matrix(1.3333333,0,0,-1.3333333,496.95987,743.13387)"
       clip-path="url(#clipPath207)" />
    <path
       id="path208"
       d="m 0,0 h -5.647 c 0.131,0.615 0.369,1.181 0.715,1.7 0.345,0.518 0.764,0.928 1.256,1.227 0.491,0.3 1.014,0.45 1.567,0.45 0.653,0 1.168,-0.217 1.544,-0.651 C -0.188,2.291 0,1.671 0,0.864 Z M 4.239,0 H 1.325 v 0.864 c 0,0.692 -0.126,1.322 -0.38,1.89 C 0.691,3.323 0.303,3.774 -0.219,4.108 -0.742,4.443 -1.383,4.61 -2.144,4.61 -3.058,4.61 -3.855,4.377 -4.535,3.913 -5.215,3.448 -5.755,2.864 -6.154,2.161 -6.554,1.458 -6.826,0.738 -6.972,0 h -0.012 c -0.392,0 -0.699,0.061 -0.922,0.184 0.069,0.269 0.104,0.573 0.104,0.911 V 3.803 H -9.127 V 1.106 C -9.127,0.699 -9.204,0.413 -9.358,0.248 -9.512,0.082 -9.796,0 -10.211,0 h -0.472 v 0 h -0.339 -10e-4 -0.391 c -0.385,0 -0.692,0.107 -0.922,0.323 v 0.023 6.96 h -1.326 V 0.3 c 0,-0.53 -0.092,-0.997 -0.276,-1.401 -0.185,-0.403 -0.448,-0.716 -0.79,-0.939 -0.342,-0.223 -0.739,-0.334 -1.192,-0.334 -0.454,0 -0.851,0.111 -1.193,0.334 -0.342,0.223 -0.605,0.536 -0.79,0.939 -0.184,0.404 -0.276,0.867 -0.276,1.389 0,0.33 0.046,0.734 0.138,1.21 l -1.302,0.196 c -0.108,-0.476 -0.161,-0.933 -0.161,-1.371 0,-0.723 0.142,-1.383 0.426,-1.983 0.284,-0.599 0.697,-1.073 1.239,-1.423 0.541,-0.349 1.181,-0.524 1.919,-0.524 0.891,0 1.636,0.252 2.235,0.755 0.6,0.503 0.999,1.166 1.199,1.988 0.399,-0.246 0.876,-0.369 1.429,-0.369 h 0.034 10e-4 0.339 v 0 h 0.576 c 0.738,0 1.295,0.165 1.671,0.495 0.415,-0.33 0.972,-0.495 1.671,-0.495 H 5.564 V 4.368 H 4.239 Z"
       style="fill:black;fill-opacity:1;fill-rule:nonzero;stroke:none"
       transform="matrix(1.3333333,0,0,-1.3333333,490.4164,750.01787)"
       clip-path="url(#clipPath209)" />
    <path
       id="path210"
       d="m 0,0 c 0,-0.45 -0.094,-0.769 -0.281,-0.956 -0.188,-0.188 -0.493,-0.268 -0.916,-0.241 l 0.184,-1.105 c 0.682,0.014 1.218,0.222 1.606,0.624 C 0.982,-1.275 1.176,-0.716 1.176,0 V 4.992 H 0 Z"
       style="fill:black;fill-opacity:1;fill-rule:nonzero;stroke:none"
       transform="matrix(1.3333333,0,0,-1.3333333,429.1792,751.75867)"
       clip-path="url(#clipPath211)" />
    <path
       id="path212"
       d="M 0,0 C 0.177,0 0.326,0.061 0.445,0.184 0.564,0.307 0.624,0.46 0.624,0.644 0.624,0.835 0.564,0.99 0.445,1.11 0.326,1.229 0.177,1.289 0,1.289 -0.177,1.289 -0.326,1.227 -0.445,1.105 -0.564,0.982 -0.624,0.829 -0.624,0.644 c 0,-0.184 0.06,-0.337 0.179,-0.46 C -0.326,0.061 -0.177,0 0,0"
       style="fill:black;fill-opacity:1;fill-rule:nonzero;stroke:none"
       transform="matrix(1.3333333,0,0,-1.3333333,441.9032,743.50747)"
       clip-path="url(#clipPath213)" />
    <path
       id="path214"
       d="M 0,0 C 0.177,0 0.326,0.061 0.445,0.184 0.564,0.307 0.624,0.46 0.624,0.644 0.624,0.835 0.564,0.99 0.445,1.11 0.326,1.229 0.177,1.289 0,1.289 -0.177,1.289 -0.326,1.227 -0.445,1.105 -0.564,0.982 -0.624,0.829 -0.624,0.644 c 0,-0.184 0.06,-0.337 0.179,-0.46 C -0.326,0.061 -0.177,0 0,0"
       style="fill:black;fill-opacity:1;fill-rule:nonzero;stroke:none"
       transform="matrix(1.3333333,0,0,-1.3333333,439.7484,743.50747)"
       clip-path="url(#clipPath215)" />
    <path
       id="path216"
       d="m 0,0 c -0.402,0.239 -0.736,0.552 -1.002,0.941 -0.266,0.389 -0.454,0.835 -0.563,1.34 0.532,0.211 1.088,0.317 1.667,0.317 0.559,0 0.996,-0.073 1.31,-0.22 C 1.725,2.232 1.882,2.039 1.882,1.8 1.882,1.527 1.701,1.222 1.34,0.885 0.978,0.547 0.532,0.252 0,0 m -5.625,-0.511 h -1.402 c -0.368,0.088 -0.659,0.264 -0.874,0.526 -0.215,0.263 -0.322,0.582 -0.322,0.957 0,0.3 0.071,0.573 0.214,0.818 0.144,0.246 0.343,0.438 0.599,0.578 0.255,0.14 0.543,0.21 0.864,0.21 0.266,0 0.573,-0.055 0.921,-0.164 z m 10.197,0 H 3.785 3.784 1.995 c -0.246,0 -0.454,0.013 -0.624,0.04 0.511,0.328 0.92,0.689 1.227,1.085 0.307,0.395 0.46,0.801 0.46,1.217 0,0.368 -0.124,0.694 -0.373,0.977 C 2.436,3.091 2.088,3.309 1.642,3.462 1.195,3.616 0.678,3.693 0.092,3.693 c -0.58,0 -1.166,-0.086 -1.759,-0.256 L -2.66,1.729 c 0.253,-0.887 0.699,-1.61 1.34,-2.169 -0.211,-0.048 -0.429,-0.071 -0.654,-0.071 h -1.299 v 0 H -4.449 V 3.11 c -0.75,0.375 -1.452,0.562 -2.107,0.562 -0.518,0 -0.996,-0.117 -1.432,-0.353 C -8.425,3.084 -8.769,2.76 -9.021,2.348 -9.274,1.935 -9.4,1.473 -9.4,0.962 c 0,-0.546 0.154,-1.037 0.461,-1.473 h -1.238 v 0 h -1.217 v 6.485 h -1.176 v -7.58 h 2.393 v 0 h 6.904 v 0 h 1.299 c 0.532,0 1.156,0.133 1.872,0.399 0.641,-0.266 1.34,-0.399 2.097,-0.399 h 1.789 0.001 1.963 v 7.58 H 4.572 Z"
       style="fill:black;fill-opacity:1;fill-rule:nonzero;stroke:none"
       transform="matrix(1.3333333,0,0,-1.3333333,449.55373,749.59027)"
       clip-path="url(#clipPath217)" />
    <path
       id="path218"
       d="m 344.652,31.477 h 1.176 v 7.58 h -1.176 z"
       style="fill:black;fill-opacity:1;fill-rule:nonzero;stroke:none"
       transform="matrix(1.3333333,0,0,-1.3333333,0,793.70133)"
       clip-path="url(#clipPath219)" />
    <path
       id="path220"
       d="M 0,0 C 0.177,0 0.326,0.061 0.445,0.184 0.564,0.307 0.624,0.46 0.624,0.644 0.624,0.835 0.564,0.99 0.445,1.11 0.326,1.229 0.177,1.289 0,1.289 -0.177,1.289 -0.326,1.227 -0.445,1.105 -0.564,0.982 -0.624,0.829 -0.624,0.644 c 0,-0.184 0.06,-0.337 0.179,-0.46 C -0.326,0.061 -0.177,0 0,0"
       style="fill:black;fill-opacity:1;fill-rule:nonzero;stroke:none"
       transform="matrix(1.3333333,0,0,-1.3333333,414.50973,743.5892)"
       clip-path="url(#clipPath221)" />
    <path
       id="path222"
       d="M 0,0 C 0.177,0 0.326,0.061 0.445,0.184 0.564,0.307 0.624,0.46 0.624,0.644 0.624,0.835 0.564,0.99 0.445,1.11 0.326,1.229 0.177,1.289 0,1.289 -0.177,1.289 -0.326,1.227 -0.445,1.105 -0.564,0.982 -0.624,0.829 -0.624,0.644 c 0,-0.184 0.06,-0.337 0.179,-0.46 C -0.326,0.061 -0.177,0 0,0"
       style="fill:black;fill-opacity:1;fill-rule:nonzero;stroke:none"
       transform="matrix(1.3333333,0,0,-1.3333333,416.66467,743.5892)"
       clip-path="url(#clipPath223)" />
    <path
       id="path224"
       d="m 0,0 c -0.177,0 -0.326,-0.061 -0.445,-0.184 -0.119,-0.123 -0.179,-0.276 -0.179,-0.46 0,-0.185 0.06,-0.338 0.179,-0.461 0.119,-0.122 0.268,-0.184 0.445,-0.184 0.177,0 0.326,0.062 0.445,0.184 0.119,0.123 0.179,0.276 0.179,0.461 0,0.191 -0.06,0.346 -0.179,0.465 C 0.326,-0.06 0.177,0 0,0"
       style="fill:black;fill-opacity:1;fill-rule:nonzero;stroke:none"
       transform="matrix(1.3333333,0,0,-1.3333333,426.01973,752.7816)"
       clip-path="url(#clipPath225)" />
    <path
       id="path226"
       d="m 0,0 c -0.293,0 -0.557,0.063 -0.793,0.189 -0.235,0.126 -0.418,0.295 -0.547,0.507 -0.13,0.211 -0.194,0.446 -0.194,0.705 0,0.259 0.066,0.498 0.199,0.716 0.133,0.219 0.314,0.391 0.542,0.517 0.229,0.126 0.479,0.189 0.752,0.189 h 1.32 V 0.624 C 1.279,0.508 1.282,0.423 1.289,0.368 0.852,0.123 0.423,0 0,0 M 7.569,3.529 H 6.392 V -0.348 H 5.308 v 0 H 3.539 v 0 H 3.416 c -0.368,0 -0.62,0.073 -0.756,0.22 C 2.523,0.019 2.455,0.273 2.455,0.634 V 4.173 H 1.279 V 3.918 h -1.32 C -0.518,3.918 -0.962,3.805 -1.371,3.58 -1.78,3.355 -2.106,3.052 -2.348,2.67 -2.59,2.288 -2.711,1.865 -2.711,1.401 c 0,-0.457 0.121,-0.878 0.363,-1.263 0.242,-0.385 0.568,-0.689 0.977,-0.91 0.409,-0.222 0.856,-0.333 1.34,-0.333 0.266,0 0.542,0.036 0.829,0.108 0.286,0.071 0.552,0.165 0.798,0.281 0.313,-0.484 0.89,-0.726 1.728,-0.726 h 0.215 c 0,0 0,0 0,0 h 1.769 v 0 h 2.261 z"
       style="fill:black;fill-opacity:1;fill-rule:nonzero;stroke:none"
       transform="matrix(1.3333333,0,0,-1.3333333,415.62813,749.8084)"
       clip-path="url(#clipPath227)" />
    <path
       id="path228"
       d="m 0,0 c -0.177,0 -0.326,-0.061 -0.445,-0.184 -0.119,-0.123 -0.179,-0.276 -0.179,-0.46 0,-0.185 0.06,-0.338 0.179,-0.461 0.119,-0.122 0.268,-0.184 0.445,-0.184 0.177,0 0.326,0.062 0.445,0.184 0.119,0.123 0.179,0.276 0.179,0.461 0,0.191 -0.06,0.346 -0.179,0.465 C 0.326,-0.06 0.177,0 0,0"
       style="fill:black;fill-opacity:1;fill-rule:nonzero;stroke:none"
       transform="matrix(1.3333333,0,0,-1.3333333,423.8648,752.7816)"
       clip-path="url(#clipPath229)" />
    <path
       id="path230"
       d="m 3.8447688,-4.5816266 v 3.1054688 l -2.53125,-3.1054688 H 0.6221125 V 4.046875e-4 h 0.84375 V -3.1050641 L 3.9853938,4.046875e-4 h 0.703125 V -4.5816266 Z M 9.3467219,4.046875e-4 H 10.237347 L 8.1748469,-4.5816266 h -0.84375 l -2.0625,4.5820312875 H 6.1475031 L 6.6045344,-1.0660016 H 8.8896906 Z M 6.8857844,-1.7339703 7.7529719,-3.7378766 8.6084406,-1.7339703 Z m 5.3613286,1.80468749 c 1.253906,0 1.851562,-0.6328125 1.851562,-1.37109379 0,-1.6757812 -2.71875,-1.0429687 -2.71875,-2.015625 0,-0.3515625 0.292969,-0.6328125 0.996094,-0.6328125 0.398437,0 0.855469,0.1289063 1.265625,0.3632813 l 0.269531,-0.65625 c -0.398437,-0.2695313 -0.972656,-0.4101563 -1.523437,-0.4101563 -1.265625,0 -1.851563,0.6328125 -1.851563,1.3710938 0,1.6992187 2.71875,1.0546875 2.71875,2.0390625 0,0.33984374 -0.292969,0.59765624 -1.007812,0.59765624 -0.5625,0 -1.148438,-0.2109375 -1.511719,-0.50390624 l -0.292969,0.66796874 c 0.375,0.328125 1.089844,0.55078125 1.804688,0.55078125 z M 14.948284,4.046875e-4 h 0.84375 V -4.5816266 h -0.84375 z m 2.088868,0 h 3.246093 V -0.71443906 H 17.880902 V -4.5816266 h -0.84375 z m 9.641601,0 L 25.624066,-1.5113141 c 0.621093,-0.234375 0.972656,-0.75 0.972656,-1.4414062 0,-1.0195313 -0.75,-1.6289063 -1.945313,-1.6289063 H 22.764691 V 4.046875e-4 h 0.84375 V -1.3355328 h 1.042968 c 0.05859,0 0.117188,0 0.175782,-0.011719 l 0.9375,1.3476562875 z M 25.741253,-2.9527203 c 0,0.5742187 -0.386719,0.9140625 -1.136719,0.9140625 h -0.996093 v -1.828125 h 0.996093 c 0.75,0 1.136719,0.3398437 1.136719,0.9140625 z m 2.654297,2.23828124 V -1.9800641 h 2.214844 v -0.703125 H 28.39555 v -1.1835937 h 2.496094 V -4.5816266 H 27.5518 V 4.046875e-4 h 3.433594 V -0.71443906 Z m 6.963867,0.7148437475 h 0.890625 L 34.187542,-4.5816266 h -0.84375 l -2.0625,4.5820312875 h 0.878906 L 32.61723,-1.0660016 h 2.285156 z M 32.89848,-1.7339703 l 0.867187,-2.0039063 0.855469,2.0039063 z m 3.943359,1.7343749875 h 3.246094 V -0.71443906 H 37.685589 V -4.5816266 h -0.84375 z M 41.608441,-0.71443906 V -1.9800641 h 2.214843 v -0.703125 h -2.214843 v -1.1835937 h 2.496093 V -4.5816266 H 40.764691 V 4.046875e-4 h 3.433593 V -0.71443906 Z m 4.96289,0.78515625 c 1.253907,0 1.851563,-0.6328125 1.851563,-1.37109379 0,-1.6757812 -2.71875,-1.0429687 -2.71875,-2.015625 0,-0.3515625 0.292969,-0.6328125 0.996094,-0.6328125 0.398437,0 0.855468,0.1289063 1.265625,0.3632813 l 0.269531,-0.65625 c -0.398438,-0.2695313 -0.972656,-0.4101563 -1.523438,-0.4101563 -1.265625,0 -1.851562,0.6328125 -1.851562,1.3710938 0,1.6992187 2.71875,1.0546875 2.71875,2.0390625 0,0.33984374 -0.292969,0.59765624 -1.007813,0.59765624 -0.5625,0 -1.148437,-0.2109375 -1.511718,-0.50390624 l -0.292969,0.66796874 c 0.375,0.328125 1.089844,0.55078125 1.804687,0.55078125 z M 50.130902,4.046875e-4 H 50.98637 V -3.8667828 h 1.511719 v -0.7148438 h -3.890625 v 0.7148438 h 1.523438 z m 6.208007,0 h 0.890625 L 55.167034,-4.5816266 h -0.84375 l -2.0625,4.5820312875 h 0.878907 L 53.596722,-1.0660016 h 2.285156 z M 53.877972,-1.7339703 l 0.867187,-2.0039063 0.855469,2.0039063 z m 4.640625,1.7343749875 h 0.855469 V -3.8667828 h 1.511718 v -0.7148438 h -3.890625 v 0.7148438 h 1.523438 z M 62.376995,-0.71443906 V -1.9800641 h 2.214844 v -0.703125 h -2.214844 v -1.1835937 h 2.496094 V -4.5816266 H 61.533245 V 4.046875e-4 h 3.433594 V -0.71443906 Z m 0,0"
       style="fill:black;fill-opacity:1;fill-rule:nonzero;stroke:none"
       aria-label="NASIL REALESTATE"
       transform="matrix(1.3333333,0,0,1.3333333,412.01427,764.81587)" />
    <path
       id="path231"
       d="m 0,0 -10.539,-5.937 v -4.239 l 14.461,8.147 z"
       style="fill:black;fill-opacity:1;fill-rule:nonzero;stroke:none"
       transform="matrix(1.3333333,0,0,-1.3333333,485.95133,716.33653)"
       clip-path="url(#clipPath232)" />
    <path
       id="path233"
       d="m 0,0 -3.87,-2.058 7.433,-4.188 v 4.239 z"
       style="fill:black;fill-opacity:1;fill-rule:nonzero;stroke:none"
       transform="matrix(1.3333333,0,0,-1.3333333,467.2432,721.57667)"
       clip-path="url(#clipPath234)" />
  </g>
</svg>
